<svg width="400" height="400" viewBox="0 0 400 400" fill="none" xmlns="http://www.w3.org/2000/svg">
<circle cx="200" cy="200" r="200" fill="black"/>
<path d="M104.026 300.329C105.492 301 107.015 301.138 108.578 300.73L179.329 282.938C180.796 282.735 182.081 282.085 183.185 280.981L285.836 178.334C286.071 178.089 286.287 177.844 286.468 177.588L286.756 177.297C287.423 176.757 288.002 176.146 288.485 175.454C296.048 166.929 299.879 156.774 300 144.999V144.882C299.911 132.245 295.402 121.465 286.465 112.532C277.432 103.502 266.584 98.9929 253.94 99C241.871 99.0036 231.386 103.133 222.502 111.378C222.428 111.456 222.349 111.534 222.275 111.609L221.178 112.702C220.982 112.858 220.791 113.032 220.599 113.221C220.546 113.277 220.489 113.334 220.432 113.395L118.015 215.928C117.721 216.216 117.451 216.525 117.209 216.848C116.648 217.658 116.286 218.542 116.112 219.497L100.166 292.556C99.8215 294.136 100.013 295.649 100.741 297.101C101.462 298.564 102.559 299.637 104.026 300.329ZM178.289 266.302L170.001 258.015L262.806 165.21L271.097 173.497L178.289 266.302ZM160.216 248.229L150.774 238.784L243.583 145.979L253.021 155.421L160.216 248.229ZM253.94 112.819C262.781 112.826 270.362 115.994 276.679 122.318C282.918 128.556 286.081 136.077 286.181 144.882V144.999C286.124 151.916 284.228 158.02 280.482 163.307L235.633 118.461C241.001 114.698 247.105 112.816 253.94 112.819ZM225.503 127.903L233.793 136.194L140.928 229.055L132.694 220.825L225.503 127.903ZM126.995 234.58L135.574 243.102C135.741 243.304 135.911 243.493 136.092 243.674L164.821 272.406L116.002 284.667L126.995 234.58Z" fill="white"/>
</svg>
