<svg width="64" height="64" xmlns="http://www.w3.org/2000/svg">

 <g>
  <title>background</title>
  <rect fill="none" id="canvas_background" height="402" width="582" y="-1" x="-1"/>
 </g>
 <g>
  <title>Layer 1</title>
  <path id="svg_4" fill="#ffffff" d="m31,15l-16,0c-0.553,0 -1,-0.447 -1,-1l0,-8c0,-0.553 0.447,-1 1,-1l16,0c0.553,0 1,0.447 1,1l0,8c0,0.553 -0.447,1 -1,1z"/>
  <path id="svg_7" fill="#ffffff" d="m49,41l-18,0c-0.553,0 -1,-0.447 -1,-1l0,-20c0,-0.553 0.447,-1 1,-1l18,0c0.553,0 1,0.447 1,1l0,20c0,0.553 -0.447,1 -1,1z"/>
  <path id="svg_9" d="m58,5l-4,0l0,-3c0,-0.552 -0.448,-1 -1,-1l-42,0c-0.552,0 -1,0.448 -1,1l0,22.568c-1.306,0.283 -2.645,0.432 -4,0.432l-2,0c-1.654,0 -3,1.346 -3,3l0,4c0,1.654 1.346,3 3,3l2,0c1.355,0 2.694,0.149 4,0.432l0,26.568c0,0.552 0.448,1 1,1l28,0c0.134,0 0.264,-0.027 0.385,-0.078c0.121,-0.051 0.231,-0.124 0.322,-0.216l13.999,-13.999c0.092,-0.091 0.165,-0.201 0.216,-0.322c0.051,-0.121 0.078,-0.251 0.078,-0.385l0,-33l4,0c2.757,0 5,-2.243 5,-5s-2.243,-5 -5,-5zm-4,4l-13,0l0,-2l13,0l0,2zm-15,2.92l-2.399,-1.92l2.399,-1.92l0,3.84zm-32,21.115l0,-6.069c3.551,-0.169 6.978,-1.227 10,-3.109l0,12.287c-3.022,-1.883 -6.449,-2.94 -10,-3.109zm-4,-1.035l0,-4c0,-0.551 0.449,-1 1,-1l1,0l0,6l-1,0c-0.551,0 -1,-0.449 -1,-1zm37,27.586l0,-10.586l10.586,0l-10.586,10.586zm12,-12.586l-13,0c-0.552,0 -1,0.448 -1,1l0,13l-26,0l0,-25.008c1.556,0.524 3.05,1.242 4.438,2.168l1.008,0.672c0.167,0.112 0.36,0.168 0.554,0.168c0.162,0 0.324,-0.039 0.472,-0.118c0.325,-0.174 0.528,-0.513 0.528,-0.882l0,-16c0,-0.369 -0.203,-0.708 -0.528,-0.882c-0.325,-0.175 -0.72,-0.155 -1.026,0.05l-1.008,0.672c-1.388,0.925 -2.881,1.643 -4.438,2.168l0,-21.008l40,0l0,2l-12,0c-0.227,0 -0.447,0.077 -0.625,0.219l-5,4c-0.237,0.19 -0.375,0.477 -0.375,0.781s0.138,0.591 0.375,0.781l5,4c0.178,0.142 0.398,0.219 0.625,0.219l12,0l0,32zm-11,-34l0,-2l13,0l0,2l-13,0zm17,0l-2,0l0,-6l2,0c1.654,0 3,1.346 3,3s-1.346,3 -3,3z"/>
  <circle id="svg_10" r="1" cy="10" cx="19"/>
  <circle id="svg_11" r="1" cy="10" cx="23"/>
  <circle id="svg_12" r="1" cy="10" cx="27"/>
  <path id="svg_13" d="m34,24c0,0.552 0.448,1 1,1l10,0c0.552,0 1,-0.448 1,-1s-0.448,-1 -1,-1l-10,0c-0.552,0 -1,0.448 -1,1z"/>
  <path id="svg_14" d="m45,31l-10,0c-0.552,0 -1,0.448 -1,1s0.448,1 1,1l10,0c0.552,0 1,-0.448 1,-1s-0.448,-1 -1,-1z"/>
  <path id="svg_15" d="m45,35l-10,0c-0.552,0 -1,0.448 -1,1s0.448,1 1,1l10,0c0.552,0 1,-0.448 1,-1s-0.448,-1 -1,-1z"/>
  <path id="svg_16" d="m45,27l-3,0c-0.552,0 -1,0.448 -1,1s0.448,1 1,1l3,0c0.552,0 1,-0.448 1,-1s-0.448,-1 -1,-1z"/>
  <path id="svg_17" d="m35,29l3,0c0.552,0 1,-0.448 1,-1s-0.448,-1 -1,-1l-3,0c-0.552,0 -1,0.448 -1,1s0.448,1 1,1z"/>
  <path id="svg_18" d="m35,49l-8,0c-0.552,0 -1,0.448 -1,1s0.448,1 1,1l8,0c0.552,0 1,-0.448 1,-1s-0.448,-1 -1,-1z"/>
  <path id="svg_19" d="m15,51l8,0c0.552,0 1,-0.448 1,-1s-0.448,-1 -1,-1l-8,0c-0.552,0 -1,0.448 -1,1s0.448,1 1,1z"/>
  <path id="svg_20" d="m35,45l-20,0c-0.552,0 -1,0.448 -1,1s0.448,1 1,1l20,0c0.552,0 1,-0.448 1,-1s-0.448,-1 -1,-1z"/>
  <path id="svg_21" d="m35,53l-20,0c-0.552,0 -1,0.448 -1,1s0.448,1 1,1l20,0c0.552,0 1,-0.448 1,-1s-0.448,-1 -1,-1z"/>
  <circle id="svg_22" r="1" cy="58" cx="21"/>
  <circle id="svg_23" r="1" cy="58" cx="25"/>
  <circle id="svg_24" r="1" cy="58" cx="29"/>
  <path id="svg_25" d="m21.414,32.829c0.195,0.195 0.451,0.293 0.707,0.293s0.512,-0.098 0.707,-0.293c0.756,-0.756 1.172,-1.761 1.172,-2.829s-0.416,-2.073 -1.171,-2.828c-0.391,-0.391 -1.023,-0.391 -1.414,0s-0.391,1.023 0,1.414c0.377,0.377 0.585,0.88 0.585,1.414s-0.208,1.037 -0.586,1.415c-0.391,0.39 -0.391,1.023 0,1.414z"/>
  <path id="svg_26" d="m24.243,25.757c1.133,1.134 1.757,2.64 1.757,4.243s-0.624,3.109 -1.757,4.243c-0.391,0.391 -0.391,1.023 0,1.414c0.195,0.195 0.451,0.293 0.707,0.293s0.512,-0.098 0.707,-0.293c1.511,-1.511 2.343,-3.52 2.343,-5.657s-0.832,-4.146 -2.343,-5.657c-0.391,-0.391 -1.023,-0.391 -1.414,0s-0.391,1.024 0,1.414z"/>
 </g>
</svg>