<svg width="400" height="400" viewBox="0 0 400 400" fill="none" xmlns="http://www.w3.org/2000/svg">
<circle cx="200" cy="200" r="200" fill="black"/>
<path d="M209.149 143.139L202.349 184.557L231.533 185.832H232.43C233.602 186.027 234.712 186.491 235.675 187.188C236.638 187.884 237.426 188.794 237.978 189.846C238.516 190.908 238.796 192.08 238.796 193.27C238.796 194.46 238.516 195.633 237.978 196.694L201.429 266.826C200.819 268.029 199.8 268.974 198.554 269.49C197.309 270.006 195.92 270.059 194.639 269.639C193.358 269.22 192.269 268.355 191.57 267.203C190.871 266.05 190.607 264.685 190.827 263.355L197.627 221.866L168.42 220.52H167.523C166.356 220.321 165.25 219.856 164.291 219.159C163.333 218.463 162.548 217.555 161.998 216.506C161.463 215.444 161.184 214.271 161.184 213.082C161.184 211.893 161.463 210.72 161.998 209.658L198.501 139.644C199.132 138.465 200.159 137.546 201.401 137.048C202.643 136.551 204.02 136.507 205.291 136.924C206.562 137.341 207.645 138.193 208.351 139.329C209.056 140.466 209.339 141.814 209.149 143.139ZM199.988 91C197.004 91 194.143 92.1855 192.033 94.2956C189.923 96.4057 188.738 99.2677 188.738 102.252C188.738 105.236 189.923 108.098 192.033 110.208C194.143 112.318 197.004 113.504 199.988 113.504C222.922 113.522 244.912 122.641 261.131 138.857C277.351 155.074 286.474 177.063 286.499 200C286.499 202.984 287.684 205.846 289.794 207.956C291.904 210.066 294.766 211.252 297.749 211.252C300.733 211.252 303.595 210.066 305.705 207.956C307.815 205.846 309 202.984 309 200C308.969 171.097 297.473 143.387 277.035 122.952C256.598 102.516 228.888 91.025 199.988 91ZM188.584 297.736C188.581 299.212 188.869 300.675 189.431 302.04C189.993 303.404 190.818 304.645 191.859 305.691C192.901 306.737 194.138 307.568 195.5 308.135C196.863 308.703 198.324 308.997 199.799 309C202.021 309 204.193 308.341 206.041 307.107C207.889 305.873 209.329 304.119 210.18 302.067C211.032 300.014 211.256 297.756 210.824 295.576C210.392 293.396 209.324 291.393 207.755 289.82C206.185 288.248 204.185 287.175 202.006 286.739C199.828 286.302 197.569 286.522 195.515 287.369C193.461 288.216 191.704 289.653 190.466 291.498C189.228 293.343 188.565 295.514 188.561 297.736H188.584ZM102.239 211.169C104.465 211.169 106.641 210.508 108.49 209.27C110.34 208.032 111.78 206.272 112.629 204.214C113.477 202.156 113.696 199.892 113.256 197.71C112.817 195.528 111.74 193.525 110.161 191.956C108.582 190.387 106.573 189.322 104.388 188.897C102.203 188.471 99.9412 188.704 97.8888 189.565C95.8365 190.427 94.0862 191.878 92.8598 193.736C91.6334 195.594 90.9862 197.774 91.0002 200C91.0189 202.969 92.2113 205.81 94.3169 207.902C96.4226 209.995 99.2705 211.169 102.239 211.169ZM145.353 294.336C147.276 295.45 149.485 295.969 151.703 295.827C153.921 295.685 156.047 294.889 157.812 293.539C159.577 292.189 160.903 290.346 161.621 288.243C162.34 286.14 162.418 283.871 161.848 281.723C161.277 279.575 160.082 277.645 158.415 276.176C156.747 274.707 154.682 273.765 152.479 273.469C150.277 273.174 148.036 273.538 146.041 274.516C144.045 275.494 142.384 277.042 141.268 278.964C139.782 281.546 139.378 284.612 140.143 287.492C140.908 290.371 142.781 292.832 145.353 294.336ZM141.41 120.966C142.531 122.881 144.195 124.421 146.191 125.392C148.187 126.363 150.426 126.721 152.625 126.421C154.824 126.121 156.885 125.177 158.548 123.707C160.212 122.238 161.402 120.308 161.971 118.163C162.539 116.017 162.46 113.751 161.742 111.65C161.025 109.55 159.701 107.709 157.939 106.359C156.177 105.01 154.055 104.213 151.84 104.068C149.625 103.923 147.417 104.437 145.494 105.546C144.207 106.284 143.08 107.27 142.177 108.447C141.274 109.624 140.613 110.969 140.233 112.403C139.853 113.837 139.762 115.332 139.964 116.802C140.166 118.272 140.657 119.687 141.41 120.966ZM109.676 239.033C107.745 240.144 106.187 241.804 105.199 243.801C104.211 245.798 103.837 248.044 104.125 250.253C104.414 252.463 105.351 254.538 106.818 256.215C108.286 257.891 110.217 259.095 112.369 259.674C114.521 260.252 116.796 260.179 118.906 259.464C121.017 258.749 122.868 257.425 124.225 255.657C125.582 253.89 126.385 251.76 126.531 249.536C126.677 247.313 126.161 245.095 125.047 243.166C123.551 240.585 121.093 238.703 118.211 237.932C115.33 237.162 112.26 237.566 109.676 239.057V239.033ZM284.515 260.285C287.242 260.297 289.879 259.318 291.937 257.53C293.995 255.741 295.333 253.266 295.701 250.564C296.07 247.863 295.444 245.119 293.94 242.845C292.436 240.571 290.157 238.921 287.527 238.202C284.897 237.484 282.095 237.746 279.644 238.94C277.193 240.134 275.26 242.179 274.204 244.692C273.148 247.206 273.042 250.018 273.905 252.604C274.768 255.191 276.542 257.375 278.896 258.75C280.595 259.766 282.536 260.304 284.515 260.309V260.285ZM120.986 141.344C119.061 140.234 116.851 139.719 114.634 139.865C112.417 140.01 110.293 140.81 108.53 142.162C106.767 143.515 105.445 145.36 104.73 147.463C104.015 149.567 103.939 151.836 104.513 153.983C105.087 156.13 106.284 158.058 107.953 159.525C109.622 160.991 111.688 161.93 113.891 162.223C116.093 162.515 118.333 162.148 120.327 161.168C122.321 160.188 123.98 158.639 125.094 156.716C125.835 155.438 126.317 154.025 126.512 152.56C126.706 151.095 126.61 149.606 126.228 148.178C125.847 146.75 125.187 145.412 124.288 144.239C123.388 143.066 122.266 142.083 120.986 141.344ZM239.041 290.369C240.026 292.085 241.446 293.51 243.158 294.501C244.87 295.492 246.814 296.013 248.792 296.013C250.731 295.983 252.627 295.445 254.293 294.454C256.22 293.345 257.774 291.689 258.76 289.697C259.745 287.704 260.118 285.464 259.83 283.259C259.543 281.055 258.608 278.985 257.145 277.312C255.681 275.639 253.754 274.437 251.608 273.859C249.461 273.282 247.192 273.353 245.086 274.065C242.98 274.777 241.133 276.098 239.778 277.86C238.422 279.622 237.62 281.747 237.472 283.965C237.324 286.183 237.837 288.395 238.946 290.322L239.041 290.369Z" fill="white"/>
</svg>
