<svg width="64" height="64" xmlns="http://www.w3.org/2000/svg">

 <g>
  <title>background</title>
  <rect fill="none" id="canvas_background" height="402" width="582" y="-1" x="-1"/>
 </g>
 <g>
  <title>Layer 1</title>
  <path stroke-width="2" stroke="#000000" fill="none" id="svg_1" d="m12.3638,41.0681s-4.3326,3.4319 -4.6077,12.8619a1.9032,1.9032 0 0 0 1.9239,1.9508c9.1235,-0.17 12.8618,-4.6343 12.8618,-4.6343a7.3926,7.3926 0 0 0 0,-10.1784c-2.8104,-2.8107 -6.9766,-2.6741 -10.178,0z"/>
  <path stroke-width="2" fill="none" stroke="#00000e" id="svg_2" d="m32.5049,44.4262a11.424,11.424 0 0 1 2.2751,5.85a34.1291,34.1291 0 0 1 -0.8711,9.8921a1.4354,1.4354 0 0 0 2.0733,1.5869c7.6938,-4.0539 14.0468,-11.8882 9.9934,-22.1077a32.1494,32.1494 0 0 1 -13.4707,4.7787z"/>
  <path stroke-width="2" stroke="#000000" fill="none" id="svg_3" d="m13.33,28.8247a11.4207,11.4207 0 0 1 5.8552,2.2807a31.9474,31.9474 0 0 1 4.7779,-13.4754c-10.2221,-4.0575 -18.0566,2.2991 -22.1147,9.9935a1.42,1.42 0 0 0 0.1279,1.5332a1.4348,1.4348 0 0 0 1.46,0.539a34.1864,34.1864 0 0 1 9.8937,-0.871z"/>
  <path stroke-width="2" stroke="#00000e" fill="none" id="svg_4" d="m60.4182,5.3488a2.5779,2.5779 0 0 0 -2.1538,-2.1535a32.8033,32.8033 0 0 0 -9.4988,-0.0391a13.47,13.47 0 0 0 11.6926,11.6848a32.8093,32.8093 0 0 0 -0.04,-9.4922z"/>
  <path stroke-width="2" fill="none" stroke="#000000" id="svg_5" d="m46.1135,3.6481a27.7164,27.7164 0 0 0 -12.65,6.7024c-11.6745,10.8095 -11.6325,21.7688 -11.6325,21.7688l9.6629,9.6629s10.96,0.0421 21.7688,-11.6319a27.7158,27.7158 0 0 0 6.7036,-12.6561a16.1679,16.1679 0 0 1 -13.8528,-13.8461zm-4.4514,23.9349a5.64,5.64 0 1 1 5.64,-5.64a5.64,5.64 0 0 1 -5.64,5.64z"/>
 </g>
</svg>