<svg id="Capa_1" enable-background="new 0 0 506.747 506.747" height="512" viewBox="0 0 506.747 506.747" width="512" xmlns="http://www.w3.org/2000/svg"><g><path d="m472.575 299.623h-42.949v-11.675c0-13.067-10.631-23.697-23.697-23.697h-139.963c-13.066 0-23.697 10.63-23.697 23.697v153.54c0 20.533 7.186 32.471 11.202 45.259h-19.466c-5.522 0-10 4.477-10 10s4.478 10 10 10h203.884c5.522 0 10-4.477 10-10s-4.478-10-10-10h-19.465l6.261-17.216c2.229-6.131 3.692-12.458 4.412-18.893l39.637-11.012c17.905-4.975 30.411-21.428 30.411-40.011v-73.422c0-14.651-11.919-26.57-26.57-26.57zm-42.95 46.241h19.796c1.065 0 1.933.867 1.933 1.933-.382 45.199.857 45.047-.933 45.518l-20.796 5.476zm-154.874 140.883-8.746-24.051c-6.517-17.922-2.563-17.928-3.736-174.748 0-2.039 1.658-3.697 3.697-3.697h139.962c2.039 0 3.697 1.659 3.697 3.697 0 169.474.831 162.188-3.736 174.748l-8.746 24.051zm204.394-87.132c0 9.633-6.482 18.162-15.765 20.741l-33.755 9.378v-10.26l25.89-6.817c9.325-2.456 15.839-10.907 15.839-20.551v-44.308c0-12.094-9.839-21.933-21.933-21.933h-19.796v-6.242h42.949c3.623 0 6.57 2.947 6.57 6.57v73.422z"/><path d="m272.087 202.254c-9.957 13.377-4.483 24.122-1.213 30.541 2.851 5.595 3.917 7.688.659 13.117-4.026 6.711.894 15.146 8.565 15.146 3.397 0 6.71-1.731 8.585-4.856 8.956-14.928 3.356-25.919.011-32.486-2.814-5.524-3.108-6.102-.563-9.52 3.297-4.431 2.379-10.695-2.052-13.993-4.432-3.298-10.696-2.379-13.992 2.051z"/><path d="m312.583 245.912c-2.841 4.736-1.306 10.878 3.431 13.72 4.745 2.847 10.884 1.296 13.72-3.43 8.956-14.928 3.356-25.919.011-32.486-2.814-5.524-3.108-6.102-.564-9.52 3.298-4.431 2.38-10.695-2.051-13.993-4.432-3.298-10.697-2.379-13.992 2.051-9.957 13.377-4.483 24.122-1.213 30.541 2.85 5.595 3.916 7.688.658 13.117z"/><path d="m353.633 245.912c-4.026 6.711.894 15.146 8.565 15.146 3.397 0 6.71-1.731 8.585-4.856 8.956-14.928 3.356-25.919.011-32.486-2.814-5.524-3.108-6.102-.563-9.52 3.297-4.431 2.379-10.695-2.052-13.993-4.433-3.298-10.696-2.379-13.992 2.051-9.957 13.377-4.483 24.122-1.213 30.541 2.851 5.595 3.917 7.688.659 13.117z"/><path d="m394.682 245.912c-2.841 4.735-1.306 10.878 3.43 13.72 4.753 2.852 10.889 1.288 13.721-3.43 8.957-14.928 3.357-25.919.012-32.486-2.814-5.524-3.109-6.102-.565-9.52 3.298-4.431 2.38-10.695-2.051-13.993-4.432-3.298-10.697-2.379-13.992 2.051-9.957 13.377-4.483 24.121-1.212 30.541 2.849 5.594 3.915 7.687.657 13.117z"/><path d="m194.7 234.407c48.932-19.128 81.106-63.065 81.106-112.253 0-67.356-60.158-122.154-134.101-122.154-73.945 0-134.103 54.798-134.103 122.154 0 29.625 11.779 58.193 33.168 80.444 19.903 20.705 46.875 34.68 76.371 39.661 13.35 20.051 39.658 42.671 90.835 45.617 8.633.504 13.806-9.529 8.348-16.274-.137-.17-12.206-15.223-21.624-37.195zm-62.933-6.448c-1.559-2.627-4.232-4.398-7.259-4.808-26.864-3.636-51.482-15.858-69.319-34.414-17.79-18.506-27.587-42.153-27.587-66.583 0-56.328 51.187-102.154 114.103-102.154s114.102 45.826 114.102 102.154c0 43.674-30.998 82.522-77.135 96.67-5.442 1.669-8.395 7.543-6.492 12.907 4.669 13.146 10.567 24.632 15.794 33.479-25.827-5.347-44.684-17.827-56.207-37.251z"/><path d="m182.899 156.544c9.705-9.836 15.05-22.861 15.05-36.676 0-29.717-24.672-53.419-54.403-52.201-26.569 1.075-49.5 24.454-50.074 51.052-.306 14.184 4.99 27.571 14.911 37.695 9.974 10.182 8.482 18.096 11.814 25.144 8.183 17.313 26.15 15.824 26.359 15.885 13.23 0 24.51-9.456 26.819-22.483 1.244-7.021 4.757-13.585 9.524-18.416zm-29.218 14.925c-1.317 7.433-12.351 7.988-15.406 1.522-.97-2.051-.781-5.182-3.48-12.029h21.852c-1.38 3.514-2.388 7.248-2.966 10.507zm14.354-74.862c6.394 6.139 9.914 14.4 9.914 23.26 0 7.826-2.787 15.236-7.877 21.095h-48.738c-5.258-6.049-8.042-13.718-7.867-21.813.552-25.592 33.204-43.059 54.568-22.542z"/><path d="m74.266 110.942-20.334 3.333c-5.449.894-9.144 6.036-8.25 11.486.894 5.452 6.037 9.144 11.486 8.25l20.334-3.333c5.449-.894 9.144-6.036 8.25-11.486s-6.032-9.145-11.486-8.25z"/><path d="m104.721 73.742c5.208-1.838 7.94-7.55 6.102-12.758l-6.352-17.994c-1.839-5.208-7.556-7.94-12.758-6.101-5.208 1.838-7.94 7.55-6.102 12.758l6.352 17.994c1.835 5.196 7.542 7.945 12.758 6.101z"/><path d="m82.397 75.078-19.089-6.401c-5.236-1.757-10.905 1.066-12.661 6.302s1.066 10.904 6.302 12.66c19.316 6.303 19.432 6.923 22.27 6.923 4.18 0 8.078-2.642 9.48-6.824 1.756-5.237-1.067-10.905-6.302-12.66z"/><path d="m283.534 307.225c-5.522 0-10 4.477-10 10v78c0 5.523 4.478 10 10 10s10-4.477 10-10v-78c0-5.523-4.478-10-10-10z"/><path d="m283.534 425.237c-5.522 0-10 4.49-10 10.013s4.478 10 10 10 10-4.477 10-10v-.025c0-5.523-4.478-9.988-10-9.988z"/></g></svg>