<svg width="400" height="400" viewBox="0 0 400 400" fill="none" xmlns="http://www.w3.org/2000/svg">
<circle cx="200" cy="200" r="200" fill="black"/>
<path d="M271.5 109.5H128.5C102.76 109.5 96 130.755 96 142V233C96 258.74 117.255 265.5 128.5 265.5H174V278.5H154.5C150.925 278.5 148 281.425 148 285C148 288.575 150.925 291.5 154.5 291.5H206.045C203.38 287.925 201.495 283.57 200.585 278.5H187V265.5H200V252.5H128.565C125.705 252.435 113.16 251.59 109.845 239.5H200V226.5H109V142.065C109.065 138.75 110.17 122.5 128.5 122.5H271.435C274.75 122.565 291 123.67 291 142V162.085C295.615 162.995 300.1 164.88 304 167.61V142C304 116.26 282.745 109.5 271.5 109.5Z" fill="white"/>
<path d="M284.5 174.435H232.5C218.2 174.435 213 186.07 213 193.935V272C213 286.3 224.635 291.5 232.5 291.5H284.5C298.8 291.5 304 279.865 304 272V193.935C304 179.628 292.339 174.435 284.5 174.435ZM226 194C226.065 191.01 227.235 187.435 232.5 187.435H284.422C287.425 187.513 291 188.702 291 193.935V200.5H226V194ZM291 271.935C290.935 274.925 289.765 278.5 284.5 278.5H232.565C229.575 278.435 226 277.265 226 272V265.5H291V271.935ZM291 252.5H226V213.5H291V252.5Z" fill="white"/>
</svg>
