<svg width="400" height="400" viewBox="0 0 400 400" fill="none" xmlns="http://www.w3.org/2000/svg">
<circle cx="200" cy="200" r="200" fill="black"/>
<path d="M280.237 115.056C278.437 113.566 276.326 112.502 274.059 111.94C271.791 111.379 269.427 111.335 267.141 111.812C258.547 113.235 249.782 113.277 241.175 111.936C225.125 109.685 214.777 104.583 211.575 101.608C210.056 99.9979 208.211 98.7302 206.163 97.8901L205.316 97.5802C202.482 96.5806 199.421 96.4111 196.493 97.0918C193.566 97.7724 190.894 99.2748 188.791 101.422C185.92 104.273 175.323 109.685 159.025 111.936C150.452 113.26 141.725 113.225 133.163 111.833C130.876 111.357 128.512 111.397 126.242 111.95C123.973 112.503 121.855 113.554 120.043 115.028C118.231 116.502 116.77 118.361 115.766 120.47C114.763 122.58 114.242 124.886 114.242 127.222V219.618C114.242 254.073 140.372 281.071 194.141 302.14L195.793 302.781H196.103C197.41 303.133 198.757 303.314 200.111 303.318C200.801 303.312 201.491 303.263 202.176 303.173H202.486C203.8 302.978 205.084 302.617 206.307 302.099L206.783 301.913C260.014 280.864 286 253.949 286 219.618V127.222C286.009 124.892 285.496 122.59 284.499 120.485C283.501 118.38 282.045 116.524 280.237 115.056ZM267.223 219.618C267.223 245.294 245.265 266.446 200.09 284.293C154.976 266.467 133.019 245.294 133.019 219.618V130.796C142.552 131.992 152.205 131.888 161.71 130.486C177.802 128.276 192.096 123.05 200.111 116.522C208.022 122.988 222.419 128.276 238.531 130.527C248.029 131.94 257.676 132.044 267.202 130.837V219.659L267.223 219.618Z" fill="white"/>
<path fill-rule="evenodd" clip-rule="evenodd" d="M242.643 165.819C246.525 169.772 246.525 176.18 242.643 180.133L191.519 232.187C189.654 234.085 187.126 235.152 184.489 235.152C181.853 235.152 179.324 234.085 177.46 232.187L157.578 211.944C153.696 207.991 153.696 201.582 157.578 197.63C161.461 193.677 167.755 193.677 171.637 197.63L184.489 210.716L228.585 165.819C232.467 161.866 238.761 161.866 242.643 165.819Z" fill="white"/>
</svg>
