<svg width="400" height="400" viewBox="0 0 400 400" fill="none" xmlns="http://www.w3.org/2000/svg">
<circle cx="200" cy="200" r="200" fill="black"/>
<path d="M248.254 160.859C250.663 166.829 252.31 173.067 253.195 179.448C253.071 178.543 252.948 177.616 252.824 176.711C253.73 183.545 253.73 190.483 252.824 197.317C252.948 196.411 253.071 195.485 253.195 194.579C252.268 201.373 250.457 208.001 247.801 214.301C248.151 213.477 248.501 212.654 248.831 211.851C246.278 217.821 243.005 223.441 239.052 228.587C239.587 227.887 240.123 227.208 240.658 226.508C236.582 231.778 231.868 236.513 226.598 240.589C227.298 240.054 227.977 239.518 228.677 238.983C223.428 243.018 217.684 246.374 211.591 248.947C212.414 248.597 213.237 248.247 214.04 247.917C207.803 250.511 201.277 252.302 194.587 253.208C195.492 253.085 196.419 252.961 197.324 252.838C190.49 253.743 183.573 253.743 176.738 252.838C177.644 252.961 178.571 253.085 179.476 253.208C172.786 252.302 166.24 250.511 160.023 247.917C160.846 248.267 161.67 248.617 162.472 248.947C156.379 246.374 150.635 243.018 145.386 238.983C146.086 239.518 146.765 240.054 147.465 240.589C142.236 236.533 137.522 231.819 133.467 226.59C134.002 227.29 134.537 227.97 135.072 228.67C131.038 223.42 127.682 217.677 125.109 211.583C125.459 212.407 125.809 213.23 126.138 214.033C123.544 207.795 121.753 201.27 120.848 194.579C120.971 195.485 121.095 196.411 121.218 197.317C120.312 190.483 120.312 183.566 121.218 176.731C121.095 177.637 120.971 178.563 120.848 179.469C121.753 172.779 123.544 166.232 126.138 160.015C125.788 160.839 125.438 161.662 125.109 162.465C127.682 156.372 131.038 150.628 135.072 145.379C134.537 146.079 134.002 146.758 133.467 147.458C137.522 142.229 142.236 137.515 147.465 133.459C146.765 133.995 146.086 134.53 145.386 135.065C150.635 131.03 156.379 127.675 162.493 125.101C161.67 125.451 160.846 125.801 160.043 126.131C166.301 123.516 172.848 121.746 179.579 120.84C178.674 120.964 177.747 121.087 176.841 121.211C183.614 120.326 190.469 120.326 197.242 121.211C196.336 121.087 195.41 120.964 194.504 120.84C201.318 121.767 207.988 123.578 214.308 126.234C213.484 125.884 212.661 125.534 211.858 125.204C212.599 125.534 213.361 125.863 214.102 126.193C215.275 126.954 216.552 127.345 217.931 127.407C219.29 127.716 220.669 127.654 222.028 127.222C224.416 126.563 227.009 124.71 228.183 122.487C229.439 120.099 230.077 117.196 229.212 114.561C228.43 112.153 226.886 109.518 224.477 108.406C217.19 105.092 209.655 102.498 201.73 101.263C193.845 100.028 185.961 99.5543 178.015 100.501C170.027 101.448 162.287 103.116 154.835 106.204C150.78 107.871 146.806 109.683 143.019 111.906C139.107 114.212 135.464 116.888 131.902 119.729C119.612 129.527 110.555 142.908 105.099 157.607C102.485 164.668 101.064 172.058 100.344 179.551C99.6028 187.086 100.117 194.579 101.332 202.031C102.547 209.525 104.955 216.647 108.064 223.564C111.234 230.646 115.516 237.048 120.436 243.018C130.317 255.04 143.616 263.892 158.191 269.162C165.313 271.735 172.765 273.135 180.3 273.794C187.773 274.453 195.245 273.897 202.636 272.662C217.766 270.109 231.806 263.069 243.519 253.29C256.077 242.792 265.341 228.443 270.24 212.88C275.037 197.626 275.345 180.931 271.434 165.45C270.569 162.033 269.458 158.677 268.14 155.383C267.831 154.045 267.214 152.872 266.308 151.884C265.588 150.772 264.62 149.887 263.426 149.228C261.223 147.931 257.971 147.396 255.5 148.199C253.01 149.002 250.601 150.546 249.345 152.934C248.09 155.219 247.245 158.348 248.254 160.859Z" fill="white"/>
<path d="M296.981 282.42C291.526 276.964 286.05 271.488 280.595 266.033C271.907 257.346 263.22 248.659 254.533 239.971C252.557 237.995 250.58 236.019 248.625 234.063C246.751 232.19 243.993 231.058 241.337 231.058C238.805 231.058 235.8 232.169 234.05 234.063C232.259 236.019 230.921 238.592 231.044 241.351C231.168 244.088 232.094 246.662 234.05 248.638C239.505 254.093 244.981 259.569 250.436 265.024C259.124 273.712 267.811 282.399 276.498 291.086C278.474 293.063 280.451 295.039 282.406 296.994C284.28 298.868 287.038 300 289.694 300C292.226 300 295.231 298.888 296.981 296.994C298.772 295.039 300.11 292.466 299.987 289.707C299.863 286.949 298.937 284.375 296.981 282.42Z" fill="white"/>
<path d="M161.011 211.501C165.663 206.848 170.316 202.196 174.968 197.544C182.379 190.133 189.79 182.722 197.18 175.331C198.868 173.643 200.557 171.955 202.245 170.267C197.386 170.267 192.549 170.267 187.69 170.267C190.902 173.479 194.113 176.69 197.325 179.901C202.45 185.027 207.576 190.153 212.702 195.279C213.876 196.453 215.07 197.647 216.243 198.82C220.175 202.752 226.865 202.752 230.797 198.82C232.979 196.638 235.182 194.435 237.364 192.253C242.634 186.983 247.884 181.734 253.154 176.464C259.515 170.103 265.876 163.741 272.257 157.36C277.754 151.863 283.25 146.367 288.747 140.87C291.402 138.215 294.12 135.58 296.734 132.883C296.775 132.842 296.817 132.801 296.858 132.76C298.731 130.886 299.863 128.128 299.863 125.472C299.863 122.94 298.752 119.934 296.858 118.185C294.902 116.394 292.329 115.056 289.57 115.179C286.832 115.303 284.259 116.229 282.283 118.185C280.101 120.367 277.898 122.569 275.716 124.752C270.446 130.022 265.197 135.271 259.926 140.541C253.565 146.902 247.204 153.263 240.823 159.645C235.326 165.141 229.83 170.638 224.333 176.134C221.678 178.79 218.96 181.425 216.346 184.122C216.305 184.163 216.264 184.204 216.222 184.245C221.081 184.245 225.918 184.245 230.777 184.245C227.565 181.034 224.354 177.822 221.143 174.611C216.017 169.485 210.891 164.359 205.765 159.233C204.591 158.06 203.397 156.866 202.224 155.692C198.292 151.76 191.602 151.76 187.67 155.692C183.017 160.345 178.365 164.997 173.712 169.65C166.301 177.061 158.89 184.472 151.5 191.862C149.812 193.55 148.124 195.238 146.436 196.926C144.563 198.799 143.43 201.558 143.43 204.213C143.43 206.746 144.542 209.751 146.436 211.501C148.392 213.292 150.965 214.63 153.723 214.506C156.461 214.383 159.035 213.477 161.011 211.501Z" fill="white"/>
<path d="M258.815 135.683C267.811 135.683 276.828 135.683 285.824 135.683C287.121 135.683 288.397 135.683 289.694 135.683C286.256 132.245 282.839 128.828 279.401 125.39C279.401 134.386 279.401 143.403 279.401 152.399C279.401 153.696 279.401 154.972 279.401 156.269C279.401 158.904 280.554 161.683 282.406 163.556C284.197 165.347 287.121 166.685 289.694 166.562C292.349 166.438 295.108 165.574 296.981 163.556C298.834 161.539 299.987 159.068 299.987 156.269C299.987 147.273 299.987 138.256 299.987 129.26C299.987 127.963 299.987 126.687 299.987 125.39C299.987 119.832 295.273 115.097 289.694 115.097C280.698 115.097 271.681 115.097 262.685 115.097C261.388 115.097 260.112 115.097 258.815 115.097C256.18 115.097 253.401 116.25 251.527 118.102C249.736 119.893 248.398 122.817 248.522 125.39C248.645 128.045 249.51 130.804 251.527 132.677C253.545 134.509 256.036 135.683 258.815 135.683Z" fill="white"/>
</svg>
